<?xml version="1.0" encoding="utf-8"?><svg xmlns="http://www.w3.org/2000/svg" xmlns:xlink="http://www.w3.org/1999/xlink"><symbol fill="none" viewBox="0 0 24 24" id="burger-close" xmlns="http://www.w3.org/2000/svg"><path d="M5 19 19 5m0 14L5 5" stroke="currentColor" stroke-width="1.5" stroke-linecap="round" stroke-linejoin="round"/></symbol><symbol fill="none" viewBox="0 0 24 24" id="burger-menus" xmlns="http://www.w3.org/2000/svg"><path d="M3 7h18M3 12h18M3 17h18" stroke="currentColor" stroke-width="1.5" stroke-linecap="round"/></symbol><symbol fill="none" viewBox="0 0 20 20" id="diag-arrow" xmlns="http://www.w3.org/2000/svg"><path d="M15.607 4.196a.586.586 0 0 1 .114.003c.023.003.045.01.067.016l.042.01c.018.007.034.015.051.023a.578.578 0 0 1 .147.092c.044.04.08.086.11.134.009.016.02.032.028.048a.585.585 0 0 1 .057.219l.49 7.964a.583.583 0 0 1-1.164.072l-.403-6.561-9.258 10.47a.583.583 0 0 1-.874-.772l9.259-10.47-6.56.403a.582.582 0 1 1-.07-1.163l7.964-.488Z" fill="currentColor"/></symbol><symbol fill="none" viewBox="0 0 32 32" id="faq-icon" xmlns="http://www.w3.org/2000/svg"><path d="M16.9 28.63h-1.8v-26h1.8v26Z" stroke="currentColor" stroke-width="1.8" stroke-linecap="round"/><path d="M29 16.531H3v-1.8h26v1.8Z" stroke="currentColor" stroke-width="1.8" stroke-linecap="round"/></symbol><symbol fill="none" viewBox="0 0 32 36" id="play-video" xmlns="http://www.w3.org/2000/svg"><path d="M30 14.398c2.667 1.54 2.667 5.389 0 6.928L6 35.183c-2.667 1.54-6-.385-6-3.464V4.006C0 .926 3.333-.998 6 .542l24 13.856Z" fill="currentColor"/></symbol><symbol fill="none" viewBox="0 0 40 40" id="slide-arrow" xmlns="http://www.w3.org/2000/svg"><path d="M25 33.2 14.133 22.333a3.31 3.31 0 0 1 0-4.666L25 6.8" stroke="currentColor" stroke-width="1.5" stroke-miterlimit="10" stroke-linecap="round" stroke-linejoin="round"/></symbol><symbol fill="none" viewBox="0 0 32 32" id="telegram" xmlns="http://www.w3.org/2000/svg"><path d="M16 0C7.168 0 0 7.168 0 16s7.168 16 16 16 16-7.168 16-16S24.832 0 16 0Zm7.424 10.88c-.24 2.528-1.28 8.672-1.808 11.504-.224 1.2-.672 1.6-1.088 1.648-.928.08-1.632-.608-2.528-1.2-1.408-.928-2.208-1.504-3.568-2.4-1.584-1.04-.56-1.616.352-2.544.24-.24 4.336-3.968 4.416-4.304a.32.32 0 0 0-.08-.288c-.096-.08-.224-.048-.336-.032-.144.032-2.384 1.52-6.752 4.464-.64.432-1.216.656-1.728.64-.576-.016-1.664-.32-2.48-.592-1.008-.32-1.792-.496-1.728-1.056.032-.288.432-.576 1.184-.88 4.672-2.032 7.776-3.376 9.328-4.016 4.448-1.856 5.36-2.176 5.968-2.176.128 0 .432.032.624.192.16.128.208.304.224.432-.016.096.016.384 0 .608Z" fill="currentColor"/></symbol><symbol fill="none" viewBox="0 0 32 32" id="vk" xmlns="http://www.w3.org/2000/svg"><path d="M16 0C7.163 0 0 7.163 0 16s7.163 16 16 16 16-7.163 16-16S24.837 0 16 0Zm6.153 18.052s1.415 1.396 1.764 2.045c.01.013.014.026.018.033.142.238.175.423.105.562-.117.23-.517.343-.653.353h-2.5c-.174 0-.537-.045-.977-.348-.338-.237-.672-.625-.997-1.004-.485-.563-.905-1.05-1.328-1.05a.507.507 0 0 0-.159.025c-.32.104-.73.56-.73 1.777 0 .38-.3.598-.511.598H15.04c-.39 0-2.422-.136-4.222-2.035-2.203-2.325-4.186-6.988-4.203-7.031-.125-.302.133-.464.415-.464h2.525c.337 0 .447.205.523.387.09.212.42 1.053.962 2 .878 1.543 1.417 2.17 1.848 2.17a.51.51 0 0 0 .232-.06c.563-.313.458-2.322.433-2.738 0-.079-.002-.899-.29-1.292-.207-.285-.558-.393-.771-.433a.91.91 0 0 1 .331-.282c.387-.193 1.083-.222 1.775-.222h.385c.75.01.944.059 1.215.127.55.132.562.487.514 1.702-.015.345-.03.735-.03 1.195 0 .1-.005.206-.005.32-.017.618-.037 1.32.4 1.608a.36.36 0 0 0 .19.055c.151 0 .608 0 1.845-2.122.38-.683.712-1.392.991-2.123.025-.043.098-.177.185-.228a.443.443 0 0 1 .207-.049h2.968c.323 0 .545.049.587.174.073.198-.014.803-1.369 2.638l-.605.798c-1.228 1.61-1.228 1.692.077 2.914Z" fill="currentColor"/></symbol></svg>