<svg width="375" height="650" viewBox="0 0 375 650" fill="none" xmlns="http://www.w3.org/2000/svg">
<g filter="url(#filter0_n_611_1500)">
<path d="M-915.49 246.795C-912.077 223.149 -907.024 188.178 -880.535 160.876C-859.809 139.516 -841.379 138.76 -818.046 109.51C-800.53 87.5476 -805.911 81.7103 -792.286 64.1823C-760.428 23.2134 -701.386 17.0173 -669.629 13.6926C-619.611 8.45149 -618.529 21.8242 -573.877 12.8681C-538.58 5.78471 -524.45 -5.55354 -504.823 3.15397C-481.208 13.6302 -480.228 39.566 -459.254 42.1761C-444.671 43.9889 -442.434 31.8062 -421.161 26.4206C-396.676 20.227 -373.888 29.8786 -340.521 44.0079C-310.292 56.8128 -311.902 61.4667 -297.703 63.7891C-267.156 68.7893 -253.381 48.318 -219.042 36.2512C-181.032 22.8946 -167.891 37.4343 -71.3276 43.1771C-60.0404 43.8513 -25.6279 45.7122 14.3449 44.6869C107.563 42.3141 133.2 26.7775 216.069 30.3143C264.45 32.3817 282.568 38.8215 297.025 47.4917C319.909 61.2373 325.83 75.9463 347.928 81.4228C371.463 87.2592 385.244 75.6693 410.569 68.9922C466.982 54.0917 538.017 74.7516 572.616 117.861C588.157 137.223 592.672 156.554 598.056 179.595C612.266 240.44 588.851 254.314 595.281 318.361C601.967 384.92 631.08 408.06 613.005 438.265C600.38 459.354 578.35 461.122 572.184 486.378C568.431 501.718 574.676 508.826 578.595 533.285C581.699 552.651 587.4 588.28 573.686 612.298C553.182 648.174 491.609 654.067 450.725 646.324C411.217 638.838 414.097 622.964 373.814 614.222C311.274 600.647 288.276 635.409 247.919 615.725C212.398 598.394 211.85 562.51 182.064 560.594C164.996 559.496 156.066 570.707 132.039 585.084C108.129 599.388 83.7646 605.788 35.049 618.577C-98.8831 653.718 -239.181 636.502 -252.166 634.799C-321.913 625.701 -356.781 621.159 -380.816 597.291C-385.717 592.421 -394.929 582.062 -408.882 580.89C-429.996 579.127 -439.421 600.311 -464.39 615.6C-494.571 634.066 -538.323 638.334 -569.431 624.309C-606.646 607.526 -605.037 573.928 -635.588 569.055C-659.791 565.194 -667.658 585.203 -705.211 598.154C-739.043 609.829 -798.537 616.317 -831.846 584.617C-858.653 559.105 -863.357 513.748 -860.215 485.9C-857.434 461.256 -848.295 448.539 -854.581 426.374C-860.291 406.207 -872.701 399.656 -885.77 383.936C-927.972 333.184 -917.257 258.979 -915.49 246.795Z" fill="#F1662C"/>
</g>
<defs>
<filter id="filter0_n_611_1500" x="-917.993" y="0" width="1536.83" height="649.32" filterUnits="userSpaceOnUse" color-interpolation-filters="sRGB">
<feFlood flood-opacity="0" result="BackgroundImageFix"/>
<feBlend mode="normal" in="SourceGraphic" in2="BackgroundImageFix" result="shape"/>
<feTurbulence type="fractalNoise" baseFrequency="0.55555558204650879 0.55555558204650879" stitchTiles="stitch" numOctaves="3" result="noise" seed="8412" />
<feColorMatrix in="noise" type="luminanceToAlpha" result="alphaNoise" />
<feComponentTransfer in="alphaNoise" result="coloredNoise1">
<feFuncA type="discrete" tableValues="1 1 1 1 1 1 1 1 1 1 1 1 1 1 1 1 1 1 1 1 1 1 1 1 1 1 1 1 1 1 1 1 1 1 1 1 1 1 1 1 1 1 1 1 1 1 1 1 1 1 1 0 0 0 0 0 0 0 0 0 0 0 0 0 0 0 0 0 0 0 0 0 0 0 0 0 0 0 0 0 0 0 0 0 0 0 0 0 0 0 0 0 0 0 0 0 0 0 0 0 "/>
</feComponentTransfer>
<feComposite operator="in" in2="shape" in="coloredNoise1" result="noise1Clipped" />
<feFlood flood-color="rgba(255, 255, 255, 0.16)" result="color1Flood" />
<feComposite operator="in" in2="noise1Clipped" in="color1Flood" result="color1" />
<feMerge result="effect1_noise_611_1500">
<feMergeNode in="shape" />
<feMergeNode in="color1" />
</feMerge>
</filter>
</defs>
</svg>
