<svg width="1920" height="1932" viewBox="0 0 1920 1932" fill="none" xmlns="http://www.w3.org/2000/svg">
<g filter="url(#filter0_n_493_3729)">
<path d="M-2247.2 734.155C-2237.05 663.811 -2222.02 559.783 -2143.22 478.565C-2081.57 415.024 -2026.74 412.777 -1957.33 325.765C-1905.23 260.432 -1921.23 243.068 -1880.7 190.926C-1785.93 69.0542 -1610.3 50.6223 -1515.83 40.7321C-1367.04 25.1412 -1363.82 64.9217 -1230.99 38.2794C-1125.99 17.2081 -1083.96 -16.5203 -1025.57 9.38237C-955.322 40.5466 -952.408 117.699 -890.014 125.464C-846.635 130.856 -839.978 94.6157 -776.697 78.5946C-703.859 60.1704 -636.071 88.8813 -536.813 130.913C-446.889 169.004 -451.679 182.848 -409.441 189.757C-318.57 204.631 -277.592 143.734 -175.444 107.838C-62.3748 68.1058 -23.2815 111.358 263.97 128.441C297.546 130.447 399.915 135.982 518.824 132.932C796.126 125.874 872.387 79.6566 1118.9 90.1774C1262.82 96.3276 1316.72 115.484 1359.73 141.276C1427.8 182.166 1445.41 225.921 1511.15 242.213C1581.16 259.574 1622.16 225.097 1697.49 205.234C1865.31 160.909 2076.62 222.367 2179.54 350.606C2225.77 408.204 2239.2 465.708 2255.22 534.249C2297.49 715.249 2227.84 756.52 2246.96 947.046C2266.85 1145.04 2353.46 1213.88 2299.69 1303.73C2262.13 1366.46 2196.6 1371.72 2178.26 1446.85C2167.09 1492.48 2185.67 1513.63 2197.33 1586.39C2206.56 1644 2223.52 1749.98 2182.72 1821.43C2121.73 1928.16 1938.56 1945.69 1816.94 1922.65C1699.42 1900.38 1707.99 1853.16 1588.15 1827.16C1402.11 1786.77 1333.7 1890.18 1213.65 1831.63C1107.98 1780.07 1106.35 1673.33 1017.74 1667.63C966.972 1664.36 940.408 1697.71 868.935 1740.48C797.808 1783.03 725.33 1802.07 580.413 1840.11C181.999 1944.65 -235.353 1893.43 -273.98 1888.37C-481.46 1861.3 -585.183 1847.79 -656.681 1776.79C-671.26 1762.3 -698.662 1731.49 -740.17 1728C-802.978 1722.76 -831.017 1785.77 -905.291 1831.26C-995.073 1886.19 -1125.22 1898.88 -1217.76 1857.16C-1328.47 1807.24 -1323.68 1707.29 -1414.56 1692.8C-1486.56 1681.31 -1509.96 1740.83 -1621.68 1779.36C-1722.32 1814.09 -1899.3 1833.39 -1998.38 1739.09C-2078.13 1663.2 -2092.12 1528.27 -2082.77 1445.43C-2074.5 1372.12 -2047.31 1334.29 -2066.01 1268.36C-2083 1208.37 -2119.92 1188.88 -2158.79 1142.11C-2284.33 991.139 -2252.46 770.398 -2247.2 734.155Z" fill="#F1662C"/>
</g>
<defs>
<filter id="filter0_n_493_3729" x="-2254.65" y="0" width="4571.68" height="1931.56" filterUnits="userSpaceOnUse" color-interpolation-filters="sRGB">
<feFlood flood-opacity="0" result="BackgroundImageFix"/>
<feBlend mode="normal" in="SourceGraphic" in2="BackgroundImageFix" result="shape"/>
<feTurbulence type="fractalNoise" baseFrequency="0.55555558204650879 0.55555558204650879" stitchTiles="stitch" numOctaves="3" result="noise" seed="8412" />
<feColorMatrix in="noise" type="luminanceToAlpha" result="alphaNoise" />
<feComponentTransfer in="alphaNoise" result="coloredNoise1">
<feFuncA type="discrete" tableValues="1 1 1 1 1 1 1 1 1 1 1 1 1 1 1 1 1 1 1 1 1 1 1 1 1 1 1 1 1 1 1 1 1 1 1 1 1 1 1 1 1 1 1 1 1 1 1 1 1 1 1 0 0 0 0 0 0 0 0 0 0 0 0 0 0 0 0 0 0 0 0 0 0 0 0 0 0 0 0 0 0 0 0 0 0 0 0 0 0 0 0 0 0 0 0 0 0 0 0 0 "/>
</feComponentTransfer>
<feComposite operator="in" in2="shape" in="coloredNoise1" result="noise1Clipped" />
<feFlood flood-color="rgba(255, 255, 255, 0.16)" result="color1Flood" />
<feComposite operator="in" in2="noise1Clipped" in="color1Flood" result="color1" />
<feMerge result="effect1_noise_493_3729">
<feMergeNode in="shape" />
<feMergeNode in="color1" />
</feMerge>
</filter>
</defs>
</svg>
