<svg width="1920" height="913" viewBox="0 0 1920 913" fill="none" xmlns="http://www.w3.org/2000/svg">
<path d="M717.887 -2.03217C710.859 -71.7316 791.733 -60.8613 838.522 -59.7284C906.07 -56.3837 973.456 -51.1778 1040.57 -42.9779C1176.37 -31.3523 1294.19 -22.8604 1429.5 -7C1511.56 1.19993 1546.46 -14.7684 1628.5 -7C1663.77 -5.57041 1670.34 -14.6288 1727.3 -38.0148C1780.36 -52.6074 1837.04 -48.4265 1891.5 -47.2667C1917.51 -41.4943 1959.51 -57.7863 1974.46 -31.649C1994.87 42.1503 1982.65 121.965 1989.92 198.084C1981.86 269.833 2033.46 787.562 1964.75 770.811C1922.72 767.817 1870.93 748.531 1832.63 755.301C1797.41 830.584 1772.41 938.101 1665.48 907.728C1373.23 880.458 1080.85 856.749 790.463 804.771C752.837 796.948 714.725 790.825 677.639 780.764C632.202 771.458 709.589 854.51 581.412 862.737C436.613 872.528 290.326 858.178 145.527 851.165C93.0344 841.158 -2.73294 869.021 -14.7343 796.598C-30.1684 672.034 -36.3312 546.5 -40.8182 420.858C-28.2493 339.209 -93.4186 -63.6126 1.91622 -58.0291C241.97 -57.9481 480.212 -32.2694 717.887 -2.03217Z" fill="#FF94C1"/>
</svg>
