<svg width="343" height="245" viewBox="0 0 343 245" fill="none" xmlns="http://www.w3.org/2000/svg">
<path d="M343 62.371C343 52.2251 334.775 44.0002 324.629 44.0002C315.671 44.0002 308.018 37.5384 306.518 28.7063L305.379 22.0001C303.22 9.29529 292.212 7.93486e-06 279.326 1.87802e-05L32 0.000226925C14.3269 0.000241799 0 14.3271 0 32.0002V64.0002V213C0 230.673 14.3269 245 32 245H311C328.673 245 343 230.673 343 213V62.371Z" fill="#71B6D1"/>
<path d="M343 62.371C343 52.2251 334.775 44.0002 324.629 44.0002C315.671 44.0002 308.018 37.5384 306.518 28.7063L305.379 22.0001C303.22 9.29529 292.212 7.93486e-06 279.326 1.87802e-05L32 0.000226925C14.3269 0.000241799 0 14.3271 0 32.0002V64.0002V213C0 230.673 14.3269 245 32 245H311C328.673 245 343 230.673 343 213V62.371Z" fill="#71B6D1"/>
</svg>
