<svg width="1680" height="875" viewBox="0 0 1680 875" fill="none" xmlns="http://www.w3.org/2000/svg">
<path d="M1680 148C1680 112.654 1651.42 84.0003 1616.08 84.0003C1480.3 84.0003 1204.76 84.0001 986.153 84C962.181 84 942.163 65.8503 939.75 42C937.337 18.1498 917.258 4.95025e-06 893.286 1.14553e-05L64 0.000236489C28.6538 0.000246081 0 28.654 0 64.0002V84.0003V811C0 846.346 28.6538 875 64 875H1616C1651.35 875 1680 846.346 1680 811V148Z" fill="#FBD621"/>
<path d="M1680 148C1680 112.654 1651.42 84.0003 1616.08 84.0003C1480.3 84.0003 1204.76 84.0001 986.153 84C962.181 84 942.163 65.8503 939.75 42C937.337 18.1498 917.258 4.95025e-06 893.286 1.14553e-05L64 0.000236489C28.6538 0.000246081 0 28.654 0 64.0002V84.0003V811C0 846.346 28.6538 875 64 875H1616C1651.35 875 1680 846.346 1680 811V148Z" fill="#FBD621"/>
</svg>
