<svg width="375" height="1134" viewBox="0 0 375 1134" fill="none" xmlns="http://www.w3.org/2000/svg">
<g filter="url(#filter0_n_611_1542)">
<path d="M1131.47 13.2244C1155.35 -2.49126 1184.32 -3.54222 1217.25 6.59754C1246.64 15.628 1271.13 30.0007 1294.51 48.373C1297.8 42.8263 1300.43 38.2137 1303.3 33.6499C1321.72 4.31075 1367.23 -3.35733 1410.61 15.7155C1415.99 18.0899 1421.45 20.9898 1425.46 24.3956C1455.2 49.7256 1481.37 76.0578 1492.13 107.46C1499.42 128.751 1506.29 150.024 1511.26 171.286L1517.1 203.145C1518.03 210.57 1518.55 232.776 1517.1 235.102L1485.22 952.281C1487.56 992.315 1490.9 1032.54 1479.83 1070.3C1475.03 1086.66 1467.91 1102.33 1448.78 1111.7C1402.38 1134.41 1366.02 1126.85 1310.67 1090.33C1308.14 1088.65 1306.03 1086.58 1301.15 1082.6L1301.09 1082.62C1297.67 1089.89 1294.89 1095.55 1292.34 1101.33C1285.23 1117.35 1270.64 1125.01 1245.56 1121.17C1226.57 1118.25 1206.92 1112.8 1188.77 1106.02C1169.95 1099.03 1152.59 1089.06 1132.72 1079.52C1130.99 1082.34 1128.68 1085.32 1127.21 1088.58C1120.52 1103.12 1109.68 1115.17 1093 1124.27C1067.91 1137.97 1038.94 1136.64 1006.96 1123.83C978.417 1112.42 955.19 1096.08 933.404 1075.86C929.665 1081.11 926.655 1085.5 923.432 1089.81C902.649 1117.54 856.673 1121.46 815.011 1098.88C809.849 1096.08 804.649 1092.73 800.928 1089.01C787.849 1075.88 775.598 1062.57 765.46 1048.79C761.37 1055.37 755.672 1061.33 747.473 1066.21C703.093 1092.66 666.242 1088.1 608.072 1056.25C605.414 1054.79 603.135 1052.89 597.944 1049.33L597.895 1049.35C595.081 1056.87 592.783 1062.75 590.718 1068.72C584.943 1085.27 571.036 1094.1 545.735 1092.33C526.579 1090.98 506.536 1087.16 487.896 1081.9C468.565 1076.46 450.451 1067.95 429.854 1060.07C428.373 1063.03 426.309 1066.19 425.12 1069.56C419.647 1084.6 409.821 1097.5 393.957 1107.93C370.077 1123.64 341.104 1124.7 308.178 1114.56C278.786 1105.53 254.293 1091.15 230.92 1072.78C227.629 1078.34 224.999 1082.94 222.126 1087.5C203.711 1116.84 158.201 1124.51 114.815 1105.44C109.44 1103.07 103.986 1100.16 99.9637 1096.76C84.4792 1083.56 69.9587 1070.09 58.0775 1055.79C53.8509 1063.88 47.6084 1071.17 37.8112 1076.93C-6.69476 1103.16 -43.5266 1098.42 -101.54 1066.28C-104.189 1064.81 -106.458 1062.89 -111.63 1059.31L-111.678 1059.33C-114.522 1066.83 -116.85 1072.7 -118.963 1078.68C-124.816 1095.18 -138.771 1103.95 -164.063 1102.06C-183.219 1100.61 -203.232 1096.69 -221.853 1091.33C-241.164 1085.79 -259.23 1077.21 -279.788 1069.22C-281.288 1072.17 -283.372 1075.31 -284.57 1078.68C-290.121 1093.69 -300.016 1106.54 -315.929 1116.89C-339.886 1132.48 -368.868 1133.4 -401.746 1123.09C-431.089 1113.9 -455.504 1099.41 -478.789 1080.93C-482.11 1086.46 -484.769 1091.06 -487.652 1095.61C-506.223 1124.86 -551.762 1132.3 -595.05 1113.01C-600.407 1110.61 -605.86 1107.68 -609.853 1104.25C-639.469 1078.78 -665.5 1052.32 -676.116 1020.86C-689.39 981.435 -671.402 171.296 -671.402 171.296H-670.983C-672.142 143.348 -671.519 115.692 -663.825 89.2239C-659.063 72.8563 -651.993 57.1601 -632.866 47.7599C-586.519 24.9406 -550.145 32.414 -494.712 68.8082C-492.18 70.4722 -490.057 72.5449 -485.168 76.5152L-485.11 76.4957C-481.711 69.2266 -478.945 63.5534 -476.403 57.7537C-469.333 41.7267 -454.764 34.0294 -429.677 37.805C-410.687 40.6854 -391.014 46.0862 -372.852 52.8298C-354.017 59.7875 -336.633 69.7034 -316.737 79.2107C-315.013 76.3887 -312.715 73.4012 -311.264 70.1413C-304.603 55.5837 -293.773 43.5172 -277.13 34.3797C-252.072 20.62 -223.099 21.885 -191.088 34.623C-162.514 45.9694 -139.258 62.2495 -117.414 82.4317C-113.685 77.1672 -110.695 72.7785 -107.481 68.4579C-86.7667 40.6757 -40.7999 36.6665 0.920898 59.1452C6.0824 61.9381 11.3024 65.2661 15.0323 68.9833C27.9653 81.9159 40.0998 95.0042 50.1891 108.569C53.5002 104.959 57.5223 101.651 62.4501 98.7117C106.82 72.2627 143.681 76.8168 201.85 108.667C204.509 110.126 206.788 112.024 211.979 115.585L212.037 115.566C214.852 108.044 217.15 102.176 219.215 96.1914C224.99 79.6486 238.897 70.8128 264.198 72.5838C283.354 73.9364 303.396 77.751 322.036 83.0253C341.367 88.4552 359.481 96.9601 380.079 104.842C381.559 101.894 383.624 98.7312 384.812 95.3642C390.285 80.32 400.112 67.4264 415.976 56.9947C439.855 41.279 468.828 40.2281 501.755 50.3678C531.146 59.3982 555.639 73.771 579.012 92.1433C582.304 86.5966 584.933 81.984 587.806 77.4202C606.222 48.081 651.731 40.413 695.117 59.4858C700.493 61.8602 705.956 64.7601 709.969 68.1659C724.275 80.3589 737.763 92.7855 749.109 105.903C749.488 103.529 749.917 101.164 750.404 98.7993C753.842 82.1008 759.636 65.8889 777.955 54.9998C822.334 28.5508 859.186 33.1049 917.355 64.9547C920.014 66.4143 922.293 68.3119 927.483 71.8735L927.542 71.854C930.356 64.3319 932.654 58.4641 934.719 52.4795C940.494 35.9367 954.401 27.1009 979.702 28.8719C998.858 30.2245 1018.9 34.0391 1037.54 39.3134C1056.87 44.7433 1074.99 53.2482 1095.58 61.1304C1097.06 58.1819 1099.13 55.0193 1100.32 51.6523C1105.79 36.6081 1115.62 23.7145 1131.48 13.2828L1131.47 13.2244Z" fill="#6CB1DA"/>
</g>
<defs>
<filter id="filter0_n_611_1542" x="-681" y="0" width="2199" height="1134" filterUnits="userSpaceOnUse" color-interpolation-filters="sRGB">
<feFlood flood-opacity="0" result="BackgroundImageFix"/>
<feBlend mode="normal" in="SourceGraphic" in2="BackgroundImageFix" result="shape"/>
<feTurbulence type="fractalNoise" baseFrequency="0.55555558204650879 0.55555558204650879" stitchTiles="stitch" numOctaves="3" result="noise" seed="8412" />
<feColorMatrix in="noise" type="luminanceToAlpha" result="alphaNoise" />
<feComponentTransfer in="alphaNoise" result="coloredNoise1">
<feFuncA type="discrete" tableValues="1 1 1 1 1 1 1 1 1 1 1 1 1 1 1 1 1 1 1 1 1 1 1 1 1 1 1 1 1 1 1 1 1 1 1 1 1 1 1 1 1 1 1 1 1 1 1 1 1 1 1 0 0 0 0 0 0 0 0 0 0 0 0 0 0 0 0 0 0 0 0 0 0 0 0 0 0 0 0 0 0 0 0 0 0 0 0 0 0 0 0 0 0 0 0 0 0 0 0 0 "/>
</feComponentTransfer>
<feComposite operator="in" in2="shape" in="coloredNoise1" result="noise1Clipped" />
<feFlood flood-color="rgba(255, 255, 255, 0.16)" result="color1Flood" />
<feComposite operator="in" in2="noise1Clipped" in="color1Flood" result="color1" />
<feMerge result="effect1_noise_611_1542">
<feMergeNode in="shape" />
<feMergeNode in="color1" />
</feMerge>
</filter>
</defs>
</svg>
