<svg width="1920" height="1664" viewBox="0 0 1920 1664" fill="none" xmlns="http://www.w3.org/2000/svg">
<g filter="url(#filter0_n_493_3741)">
<path d="M2023.95 19.4051C2058.98 -3.65561 2101.48 -5.19775 2149.79 9.68105C2192.91 22.932 2228.84 44.0222 2263.13 70.9811C2267.96 62.8421 2271.81 56.0738 2276.03 49.3769C2303.05 6.32547 2369.81 -4.92645 2433.46 23.0605C2441.34 26.5446 2449.36 30.7998 2455.25 35.7975C2498.86 72.9659 2537.27 111.605 2553.05 157.684C2563.74 188.926 2573.83 220.14 2581.11 251.34L2589.67 298.09C2591.04 308.985 2591.8 341.57 2589.67 344.982L2542.91 1397.35C2546.34 1456.09 2551.24 1515.12 2535.01 1570.53C2527.97 1594.53 2517.52 1617.53 2489.45 1631.27C2421.39 1664.6 2368.04 1653.5 2286.84 1599.91C2283.13 1597.46 2280.03 1594.42 2272.87 1588.58L2272.79 1588.6C2267.77 1599.27 2263.69 1607.58 2259.94 1616.06C2249.51 1639.57 2228.11 1650.8 2191.32 1645.18C2163.46 1640.89 2134.63 1632.9 2108.01 1622.95C2080.4 1612.68 2054.94 1598.06 2025.78 1584.06C2023.25 1588.19 2019.85 1592.57 2017.71 1597.36C2007.89 1618.69 1991.97 1636.37 1967.52 1649.72C1930.7 1669.82 1888.21 1667.87 1841.29 1649.08C1799.41 1632.33 1765.34 1608.35 1733.38 1578.68C1727.89 1586.39 1723.48 1592.83 1718.75 1599.16C1688.26 1639.85 1620.81 1645.59 1559.69 1612.46C1552.12 1608.35 1544.49 1603.44 1539.03 1597.99C1519.85 1578.71 1501.87 1559.19 1487 1538.97C1481 1548.62 1472.64 1557.36 1460.61 1564.53C1395.51 1603.34 1341.44 1596.64 1256.11 1549.91C1252.21 1547.77 1248.86 1544.98 1241.25 1539.76L1241.18 1539.78C1237.05 1550.82 1233.68 1559.45 1230.65 1568.21C1222.18 1592.49 1201.77 1605.45 1164.66 1602.85C1136.55 1600.87 1107.15 1595.27 1079.81 1587.55C1051.45 1579.57 1024.87 1567.09 994.656 1555.52C992.484 1559.86 989.455 1564.5 987.712 1569.44C979.683 1591.52 965.267 1610.44 941.994 1625.74C906.962 1648.81 864.458 1650.35 816.154 1635.47C773.036 1622.22 737.104 1601.13 702.815 1574.17C697.986 1582.32 694.128 1589.08 689.914 1595.77C662.897 1638.82 596.134 1650.08 532.485 1622.09C524.599 1618.62 516.598 1614.35 510.697 1609.35C487.981 1589.99 466.679 1570.23 449.249 1549.24C443.048 1561.1 433.89 1571.8 419.518 1580.25C354.226 1618.75 300.193 1611.79 215.085 1564.63C211.199 1562.47 207.87 1559.66 200.284 1554.41L200.212 1554.43C196.04 1565.44 192.626 1574.05 189.525 1582.82C180.939 1607.04 160.466 1619.9 123.362 1617.13C95.2598 1615.01 65.8999 1609.25 38.5832 1601.38C10.252 1593.26 -16.2504 1580.67 -46.4103 1568.94C-48.6105 1573.27 -51.6679 1577.88 -53.4252 1582.82C-61.5688 1604.85 -76.0844 1623.7 -99.4293 1638.9C-134.575 1661.77 -177.094 1663.11 -225.327 1647.99C-268.373 1634.51 -304.191 1613.25 -338.351 1586.12C-343.223 1594.24 -347.123 1600.98 -351.352 1607.67C-378.598 1650.59 -445.404 1661.5 -508.909 1633.2C-516.767 1629.69 -524.768 1625.37 -530.626 1620.35C-574.072 1582.96 -612.262 1544.14 -627.834 1497.98C-647.308 1440.13 -620.92 251.354 -620.92 251.354H-620.305C-622.005 210.345 -621.091 169.764 -609.804 130.925C-602.818 106.907 -592.446 83.8751 -564.386 70.0816C-496.394 36.5971 -443.032 47.5634 -361.71 100.967C-357.996 103.409 -354.881 106.45 -347.709 112.276L-347.623 112.248C-342.637 101.581 -338.58 93.2565 -334.851 84.7462C-324.478 61.2285 -303.105 49.9338 -266.302 55.4741C-238.442 59.7007 -209.582 67.6256 -182.937 77.521C-155.306 87.7305 -129.804 102.281 -100.615 116.232C-98.0864 112.091 -94.7147 107.707 -92.5859 102.923C-82.8136 81.5619 -66.9264 63.8559 -42.5099 50.4478C-5.74941 30.2572 36.7544 32.1135 83.7158 50.8048C125.634 67.4542 159.751 91.3431 191.797 120.958C197.269 113.233 201.655 106.793 206.37 100.453C236.758 59.6864 304.193 53.8034 365.399 86.7881C372.971 90.8862 380.628 95.7696 386.1 101.224C405.074 120.201 422.875 139.406 437.677 159.312C442.534 154.014 448.435 149.159 455.664 144.847C520.756 106.036 574.832 112.719 660.168 159.454C664.069 161.596 667.412 164.381 675.027 169.607L675.112 169.578C679.241 158.54 682.613 149.93 685.642 141.149C694.114 116.874 714.516 103.909 751.634 106.507C779.736 108.492 809.139 114.09 836.484 121.829C864.844 129.797 891.418 142.277 921.635 153.843C923.806 149.516 926.835 144.875 928.578 139.935C936.608 117.859 951.023 98.9396 974.297 83.6324C1009.33 60.5717 1051.83 59.0295 1100.14 73.9083C1143.26 87.1593 1179.19 108.25 1213.48 135.208C1218.3 127.069 1222.16 120.301 1226.38 113.604C1253.39 70.5528 1320.16 59.3008 1383.81 87.2878C1391.69 90.7719 1399.71 95.0271 1405.59 100.025C1426.58 117.916 1446.37 136.151 1463.01 155.399C1463.57 151.915 1464.2 148.445 1464.91 144.975C1469.96 120.472 1478.46 96.6835 1505.33 80.7052C1570.44 41.8947 1624.5 48.5773 1709.84 95.3127C1713.74 97.4545 1717.08 100.239 1724.69 105.465L1724.78 105.437C1728.91 94.3988 1732.28 85.7885 1735.31 77.0069C1743.78 52.7325 1764.18 39.7671 1801.3 42.3659C1829.4 44.3507 1858.81 49.9481 1886.15 57.6873C1914.51 65.655 1941.08 78.135 1971.3 89.701C1973.47 85.3744 1976.5 80.7337 1978.25 75.7932C1986.27 53.7177 2000.69 34.7979 2023.96 19.4908L2023.95 19.4051Z" fill="#6CB1DA"/>
</g>
<defs>
<filter id="filter0_n_493_3741" x="-635" y="0" width="3226" height="1664" filterUnits="userSpaceOnUse" color-interpolation-filters="sRGB">
<feFlood flood-opacity="0" result="BackgroundImageFix"/>
<feBlend mode="normal" in="SourceGraphic" in2="BackgroundImageFix" result="shape"/>
<feTurbulence type="fractalNoise" baseFrequency="0.55555558204650879 0.55555558204650879" stitchTiles="stitch" numOctaves="3" result="noise" seed="8412" />
<feColorMatrix in="noise" type="luminanceToAlpha" result="alphaNoise" />
<feComponentTransfer in="alphaNoise" result="coloredNoise1">
<feFuncA type="discrete" tableValues="1 1 1 1 1 1 1 1 1 1 1 1 1 1 1 1 1 1 1 1 1 1 1 1 1 1 1 1 1 1 1 1 1 1 1 1 1 1 1 1 1 1 1 1 1 1 1 1 1 1 1 0 0 0 0 0 0 0 0 0 0 0 0 0 0 0 0 0 0 0 0 0 0 0 0 0 0 0 0 0 0 0 0 0 0 0 0 0 0 0 0 0 0 0 0 0 0 0 0 0 "/>
</feComponentTransfer>
<feComposite operator="in" in2="shape" in="coloredNoise1" result="noise1Clipped" />
<feFlood flood-color="rgba(255, 255, 255, 0.16)" result="color1Flood" />
<feComposite operator="in" in2="noise1Clipped" in="color1Flood" result="color1" />
<feMerge result="effect1_noise_493_3741">
<feMergeNode in="shape" />
<feMergeNode in="color1" />
</feMerge>
</filter>
</defs>
</svg>
