<svg width="375" height="622" viewBox="0 0 375 622" fill="none" xmlns="http://www.w3.org/2000/svg">
<path d="M352.568 656.554C318.495 656.109 285.787 652.526 253.103 648.012C209.836 642.063 166.488 635.925 122.485 631.963C74.2096 627.658 25.7166 625.168 -23.1409 626.912C-59.7402 628.175 -93.5549 634.452 -128.112 639.591C-174.961 646.564 -221.485 654.197 -269.957 657.63C-336.102 662.294 -402.243 660.101 -468.365 653.758C-520.477 648.751 -571.76 641.479 -622.857 633.605C-641.027 630.812 -659.801 628.19 -676.819 623.886C-696.814 618.808 -717.817 616.269 -738.364 612.669C-798.898 602.084 -860.468 595.25 -923.856 595.879C-964.715 596.288 -1004.95 599.044 -1044.88 603.254C-1103.01 609.427 -1161.22 615.364 -1221.47 613.834C-1264.18 612.75 -1306.92 609.752 -1345.28 599.311C-1420.63 578.741 -1470.53 547.392 -1477.02 499.374C-1482.22 461.511 -1470.09 425.58 -1449.5 390.237C-1436.16 367.395 -1419.41 345.2 -1408.12 321.981C-1395.56 296.181 -1392.58 270.045 -1404.49 243.391C-1412.43 225.606 -1424.16 208.425 -1434.59 191.043C-1449.47 166.32 -1455.76 141.208 -1451.78 115.704C-1445.84 77.4699 -1419.49 44.8846 -1360.28 23.2082C-1322.25 9.29585 -1278.83 2.60946 -1232.19 0.668784C-1152.72 -2.6303 -1076.06 6.77876 -999.353 17.7746C-946.876 25.2636 -894.769 33.8159 -841.842 40.43C-781.488 47.9791 -721.962 47.6716 -661.978 42.805C-591.867 37.0763 -524.938 25.1103 -456.786 15.6007C-426.963 11.414 -397.211 6.61938 -366.093 5.35736C-311.399 3.10824 -257.046 4.16184 -202.846 11.2282C-147.791 18.3628 -94.4453 28.7189 -40.3804 37.7406C6.86279 45.6097 54.8176 49.066 104.105 47.2393C181.767 44.3141 256.703 34.0439 332.836 27.2554C368.113 24.0935 403.291 21.4888 439.405 22.4524C481.851 23.6235 519.237 31.8485 552.429 46.7299C594.343 65.5173 622.251 89.4993 642.463 116.411C659.361 138.947 664.846 162.359 664.156 186.175C663.482 209.338 656.824 232.115 644.284 253.811C630.579 277.529 611.419 300.223 595.158 323.456C572.319 356.13 556.565 389.731 562.249 425.601C566.022 449.017 573.31 472.242 580.342 495.46C587.136 517.973 592.214 540.583 588.468 563.294C584.421 587.771 564.301 607.828 533.379 624.953C498.637 644.172 454.998 652.858 406.275 656.052C388.261 657.227 370.192 657.235 352.566 656.601L352.568 656.554Z" fill="#2B2D33"/>
</svg>
