<svg width="1920" height="431" viewBox="0 0 1920 431" fill="none" xmlns="http://www.w3.org/2000/svg">
<path d="M1742.89 676.685C1707.77 676.226 1674.06 672.534 1640.38 667.881C1595.78 661.749 1551.11 655.423 1505.75 651.339C1456 646.903 1406.02 644.336 1355.66 646.134C1317.94 647.436 1283.09 653.905 1247.47 659.202C1199.19 666.388 1151.24 674.256 1101.28 677.794C1033.11 682.601 964.936 680.341 896.787 673.804C843.077 668.642 790.221 661.147 737.558 653.032C718.831 650.153 699.482 647.451 681.942 643.016C661.333 637.781 639.687 635.165 618.509 631.454C556.12 620.545 492.661 613.501 427.33 614.15C385.218 614.571 343.75 617.412 302.598 621.75C242.682 628.112 182.684 634.232 120.587 632.655C76.5725 631.538 32.5194 628.448 -7.01393 617.686C-84.6766 596.486 -136.108 564.175 -142.795 514.686C-148.159 475.661 -135.656 438.628 -114.431 402.202C-100.682 378.66 -83.4192 355.785 -71.7787 331.853C-58.835 305.263 -55.7679 278.325 -68.045 250.854C-76.2293 232.524 -88.313 214.816 -99.0675 196.901C-114.396 171.419 -120.888 145.537 -116.779 119.251C-110.659 79.8451 -83.5035 46.2608 -22.4761 23.9197C16.7237 9.58072 61.4715 2.68934 109.537 0.689123C191.444 -2.7111 270.457 6.98647 349.518 18.3195C403.604 26.0381 457.309 34.8526 511.859 41.6696C574.063 49.4501 635.414 49.1331 697.237 44.1174C769.498 38.213 838.48 25.8801 908.721 16.0788C939.458 11.7639 970.123 6.82218 1002.2 5.5215C1058.57 3.20342 1114.59 4.28932 1170.45 11.5723C1227.19 18.9257 1282.17 29.5993 1337.89 38.8977C1386.59 47.008 1436.01 50.5703 1486.81 48.6876C1566.85 45.6727 1644.09 35.0876 1722.55 28.091C1758.91 24.8322 1795.17 22.1475 1832.39 23.1407C1876.14 24.3477 1914.67 32.825 1948.88 48.1627C1992.08 67.5261 2020.84 92.2433 2041.67 119.98C2059.09 143.207 2064.74 167.337 2064.03 191.883C2063.34 215.756 2056.48 239.232 2043.55 261.593C2029.43 286.038 2009.68 309.428 1992.92 333.374C1969.38 367.05 1953.14 401.68 1959 438.65C1962.89 462.784 1970.4 486.721 1977.65 510.652C1984.65 533.855 1989.88 557.158 1986.02 580.566C1981.85 605.793 1961.12 626.465 1929.25 644.115C1893.44 663.923 1848.46 672.876 1798.24 676.168C1779.68 677.379 1761.06 677.386 1742.89 676.733L1742.89 676.685Z" fill="#2B2D33"/>
</svg>
