<svg width="375" height="536" viewBox="0 0 375 536" fill="none" xmlns="http://www.w3.org/2000/svg">
<path d="M738.568 656.554C704.495 656.109 671.787 652.526 639.103 648.012C595.836 642.063 552.488 635.925 508.485 631.963C460.21 627.658 411.717 625.168 362.859 626.912C326.26 628.175 292.445 634.452 257.888 639.591C211.039 646.564 164.515 654.197 116.043 657.63C49.8985 662.294 -16.2433 660.101 -82.3655 653.758C-134.477 648.751 -185.76 641.479 -236.857 633.605C-255.027 630.812 -273.801 628.19 -290.819 623.886C-310.814 618.808 -331.817 616.269 -352.364 612.669C-412.898 602.084 -474.468 595.25 -537.856 595.879C-578.715 596.288 -618.949 599.044 -658.877 603.254C-717.011 609.427 -775.223 615.364 -835.473 613.834C-878.179 612.75 -920.921 609.752 -959.278 599.311C-1034.63 578.741 -1084.53 547.392 -1091.02 499.374C-1096.22 461.511 -1084.09 425.58 -1063.5 390.237C-1050.16 367.395 -1033.41 345.2 -1022.12 321.981C-1009.56 296.181 -1006.58 270.045 -1018.49 243.391C-1026.43 225.606 -1038.16 208.425 -1048.59 191.043C-1063.47 166.32 -1069.76 141.208 -1065.78 115.704C-1059.84 77.4699 -1033.49 44.8846 -974.281 23.2082C-936.247 9.29585 -892.83 2.60946 -846.194 0.668784C-766.725 -2.6303 -690.062 6.77876 -613.353 17.7746C-560.876 25.2636 -508.769 33.8159 -455.842 40.43C-395.488 47.9791 -335.962 47.6716 -275.978 42.805C-205.867 37.0763 -138.938 25.1103 -70.7859 15.6007C-40.9634 11.414 -11.2112 6.61938 19.9072 5.35736C74.6008 3.10824 128.954 4.16184 183.154 11.2282C238.209 18.3628 291.555 28.7189 345.62 37.7406C392.863 45.6097 440.818 49.066 490.105 47.2393C567.767 44.3141 642.703 34.0439 718.836 27.2554C754.113 24.0935 789.291 21.4888 825.405 22.4524C867.851 23.6235 905.237 31.8485 938.429 46.7299C980.343 65.5173 1008.25 89.4993 1028.46 116.411C1045.36 138.947 1050.85 162.359 1050.16 186.175C1049.48 209.338 1042.82 232.115 1030.28 253.811C1016.58 277.529 997.419 300.223 981.158 323.456C958.319 356.13 942.565 389.731 948.249 425.601C952.022 449.017 959.31 472.242 966.342 495.46C973.136 517.973 978.214 540.583 974.468 563.294C970.421 587.771 950.301 607.828 919.379 624.953C884.637 644.172 840.998 652.858 792.275 656.052C774.261 657.227 756.192 657.235 738.566 656.601L738.568 656.554Z" fill="#2B2D33"/>
</svg>
