<svg width="143" height="40" viewBox="0 0 143 40" fill="none" xmlns="http://www.w3.org/2000/svg">
<g clip-path="url(#clip0_2001_370)">
<path d="M85.9309 27.0034C85.6436 26.3169 85.2125 25.6951 84.6508 25.138C83.5014 24.011 82.1168 23.4411 80.5233 23.4411C78.9297 23.4411 77.5321 24.011 76.3957 25.138C75.2593 26.265 74.6845 27.6382 74.6845 29.2315C74.6845 30.8249 75.2593 32.198 76.3957 33.325C77.5321 34.452 78.9166 35.022 80.5233 35.022C81.9862 35.022 82.8875 34.7111 83.841 34.0245C84.0631 33.7913 84.1806 33.5063 84.1806 33.1825C84.1806 32.8586 84.0631 32.5737 83.841 32.3534C83.6189 32.1332 83.3316 32.0166 83.005 32.0166C82.6001 32.0555 82.0907 32.3534 81.725 32.483C81.3592 32.6125 80.9674 32.6773 80.5233 32.6773C80.1445 32.6773 79.7657 32.6125 79.426 32.4959C79.0734 32.3793 78.7468 32.2109 78.4595 32.0037C78.1721 31.7964 77.9109 31.5373 77.6888 31.2394C77.5059 30.9803 77.3492 30.7083 77.2447 30.3974H85.1733C85.4999 30.3974 85.7872 30.2808 86.0093 30.0606C86.2444 29.8404 86.362 29.5554 86.362 29.2186C86.362 28.4284 86.2183 27.677 85.9309 26.9905V27.0034ZM83.3577 27.2236C83.5406 27.4827 83.6973 27.7548 83.8018 28.0657H77.2316C77.3361 27.7677 77.4798 27.4827 77.6627 27.2236C77.8847 26.9257 78.1329 26.6666 78.4333 26.4593C78.7338 26.2521 79.0603 26.0837 79.413 25.9671C80.1183 25.7339 80.9021 25.7339 81.6074 25.9671C81.9601 26.0837 82.2866 26.2521 82.574 26.4593C82.8614 26.6666 83.1226 26.9257 83.3446 27.2236H83.3577Z" fill="#E5005B"/>
<path d="M126.462 18.6351C126.462 18.3501 126.371 18.0651 126.175 17.819L123.954 15.1116C123.34 14.3602 122.727 13.5959 122.087 12.8057C122.309 12.6244 122.505 12.4689 122.7 12.3135C123.863 11.316 125.039 10.3186 126.201 9.30815C126.75 8.8418 126.841 8.10342 126.436 7.62412C126.031 7.15778 125.352 7.14482 124.777 7.65003C123.197 9.02316 121.629 10.3963 120.062 11.7694C119.748 12.0415 119.344 12.3912 119.017 12.6632V12.4948V12.4819C119.017 11.8342 119.017 11.1865 119.017 10.5258V9.01021C119.017 8.32364 118.442 7.75367 117.75 7.75367C117.058 7.75367 116.483 8.32364 116.483 9.01021V18.5314C116.483 19.218 117.058 19.788 117.75 19.788C118.442 19.788 119.017 19.218 119.017 18.5314V16.2645C119.017 16.2645 119.017 16.2386 119.017 16.2256C119.017 16.2256 119.017 16.2127 119.017 16.1997V15.8888C119.017 15.8888 119.043 15.8499 119.056 15.824C119.448 15.4743 119.97 15.0857 120.402 14.7488L124.216 19.4123C124.66 19.9434 125.457 20.0341 126.005 19.5937C126.253 19.3994 126.41 19.1144 126.449 18.8294C126.462 18.7646 126.462 18.6998 126.462 18.6351Z" fill="#008ACC"/>
<path d="M127.024 29.1797C127.285 29.8015 127.572 30.3455 127.729 30.9026C128.33 32.9363 126.358 35.1515 124.346 35.0867C122.935 35.0479 121.525 35.0867 120.114 35.0867C119.239 35.0867 118.716 34.6074 118.703 33.7395C118.69 30.7601 118.69 27.7677 118.703 24.7882C118.703 23.8167 119.043 23.5317 120.036 23.5317C121.459 23.5317 122.896 23.5317 124.32 23.5317C125.652 23.5317 126.645 24.1405 127.298 25.2805C127.951 26.4334 127.938 27.6122 127.285 28.7781C127.181 28.9595 127.063 29.1149 127.011 29.1926L127.024 29.1797ZM121.159 32.6384C122.217 32.6384 123.223 32.6514 124.216 32.6384C124.895 32.6254 125.287 32.2498 125.339 31.615C125.378 31.1098 125.012 30.5658 124.398 30.5269C123.327 30.4621 122.256 30.5139 121.159 30.5139V32.6514V32.6384ZM121.159 28.0527C122.204 28.0527 123.21 28.0915 124.216 28.0527C124.921 28.0268 125.313 27.5993 125.326 26.9904C125.326 26.4723 124.869 25.9541 124.268 25.9282C123.249 25.8893 122.217 25.9282 121.159 25.9282V28.0656V28.0527Z" fill="#008ACC"/>
<path d="M72.7515 32.6773C72.9083 32.6902 72.9867 32.7032 73.052 32.7032C73.7834 32.7939 74.2275 33.2473 74.2145 33.9209C74.2145 34.5556 73.692 35.0479 72.9867 35.0867C72.3074 35.1126 71.6151 35.0867 70.9229 35.0867C68.5064 35.0867 66.0769 35.0867 63.6604 35.0867C63.4122 35.0867 63.1771 35.0349 62.942 34.9961C62.3542 34.8795 62.0407 34.5167 62.0015 33.9468C61.9754 33.4286 62.315 32.9364 62.8505 32.768C62.9159 32.742 63.0987 32.7161 63.1771 32.6902C64.5747 32.3534 64.7184 32.185 64.7184 30.7471C64.7184 28.8558 64.7184 26.9645 64.7184 25.0732C64.7184 23.9592 65.1233 23.5576 66.2075 23.5447C67.8794 23.5447 69.5644 23.5447 71.2363 23.5447C72.3466 23.5447 72.7254 23.9333 72.7254 25.0344C72.7254 27.3532 72.7254 29.6849 72.7254 32.0037V32.6643L72.7515 32.6773ZM70.3089 26.0448H67.1349V32.6773H70.3089V26.0448Z" fill="#52AE32"/>
<path d="M90.4898 25.9023C89.68 25.9023 88.9224 25.9023 88.1648 25.9023C87.577 25.9023 87.0676 25.695 86.8194 25.1251C86.4798 24.3349 87.0676 23.454 88.008 23.441C90.5159 23.4022 93.0369 23.4151 95.5448 23.441C96.2502 23.441 96.7726 24.0628 96.7465 24.7623C96.7204 25.3582 96.1326 25.8764 95.4011 25.9023C94.6174 25.9282 93.8467 25.9023 92.9716 25.9023V26.5241C92.9716 28.9076 92.9716 31.2912 92.9716 33.6618C92.9716 34.6204 92.423 35.1644 91.5609 35.0997C90.8947 35.0479 90.4898 34.4779 90.4898 33.5452C90.4898 31.2394 90.4898 28.9335 90.4898 26.6277V25.9023Z" fill="#008ACC"/>
<path d="M111.964 25.9023C111.089 25.9023 110.305 25.9023 109.534 25.9023C108.894 25.9023 108.319 25.5007 108.215 25.0085C108.11 24.5033 108.176 23.998 108.672 23.7131C108.973 23.5447 109.351 23.441 109.691 23.4281C112.055 23.4022 114.406 23.4151 116.771 23.4281C117.607 23.4281 118.142 23.9074 118.155 24.6717C118.168 25.3582 117.633 25.8764 116.81 25.9023C116.026 25.9282 115.255 25.9023 114.38 25.9023V26.5241C114.38 28.791 114.38 31.058 114.38 33.325C114.38 33.5193 114.38 33.7006 114.38 33.8949C114.328 34.6981 113.884 35.1126 113.113 35.0997C112.434 35.0867 111.977 34.5815 111.964 33.8172C111.964 31.3948 111.964 28.9854 111.964 26.5759V25.9023Z" fill="#995EA3"/>
<path d="M113.074 16.2386C112.787 16.2386 112.526 16.3292 112.304 16.4977C111.964 16.7826 111.598 17.0029 111.219 17.1583C110.841 17.3008 110.423 17.3785 109.966 17.3785C109.469 17.3785 108.999 17.2878 108.568 17.0935C108.137 16.9122 107.745 16.6531 107.418 16.3292C107.092 16.0054 106.831 15.6297 106.648 15.2022C106.465 14.7748 106.36 14.3084 106.36 13.8162C106.36 13.3239 106.452 12.8576 106.648 12.4301C106.831 12.0026 107.092 11.614 107.418 11.3031C107.745 10.9792 108.137 10.7201 108.568 10.5388C108.999 10.3574 109.469 10.2538 109.966 10.2538C110.41 10.2538 110.828 10.3315 111.219 10.474C111.598 10.6165 111.964 10.8497 112.317 11.1347C112.552 11.316 112.813 11.4067 113.113 11.4067C113.466 11.4067 113.753 11.2901 113.989 11.0569C114.224 10.8238 114.328 10.5388 114.328 10.189C114.328 9.82631 114.185 9.51541 113.91 9.26929C112.813 8.31069 111.481 7.81844 109.979 7.81844C108.32 7.81844 106.883 8.41432 105.707 9.56723C104.532 10.7201 103.944 12.158 103.944 13.8032C103.944 15.4484 104.545 16.8733 105.707 18.0392C106.87 19.205 108.32 19.788 109.979 19.788C111.481 19.788 112.8 19.2957 113.923 18.3242C114.171 18.078 114.302 17.7801 114.302 17.4303C114.302 17.0806 114.185 16.7956 113.962 16.5754C113.727 16.3422 113.44 16.2386 113.1 16.2386H113.074Z" fill="#52AE32"/>
<path d="M106.151 31.641C105.864 31.641 105.615 31.7316 105.393 31.9C105.054 32.185 104.701 32.4052 104.322 32.5477C103.943 32.6902 103.538 32.755 103.094 32.755C102.611 32.755 102.141 32.6643 101.723 32.483C101.292 32.3016 100.913 32.0555 100.6 31.7316C100.286 31.4207 100.025 31.0451 99.8419 30.6176C99.6591 30.1901 99.5676 29.7367 99.5676 29.2574C99.5676 28.7781 99.6591 28.3118 99.8419 27.8972C100.025 27.4698 100.286 27.0941 100.6 26.7832C100.926 26.4723 101.305 26.2132 101.723 26.0319C102.154 25.8505 102.611 25.7598 103.094 25.7598C103.538 25.7598 103.943 25.8375 104.322 25.98C104.701 26.1225 105.054 26.3428 105.406 26.6277C105.628 26.8091 105.89 26.8998 106.177 26.8998C106.517 26.8998 106.804 26.7832 107.026 26.563C107.248 26.3428 107.366 26.0448 107.366 25.708C107.366 25.3582 107.222 25.0473 106.961 24.8142C105.877 23.8685 104.583 23.3892 103.107 23.3892C101.488 23.3892 100.077 23.9722 98.9276 25.1121C97.7781 26.2521 97.1903 27.6511 97.1903 29.2574C97.1903 30.8637 97.7781 32.2628 98.9276 33.4027C100.077 34.5427 101.488 35.1256 103.107 35.1256C104.583 35.1256 105.877 34.6463 106.974 33.7007C107.222 33.4545 107.353 33.1566 107.353 32.8327C107.353 32.5089 107.235 32.2109 107.013 31.9907C106.791 31.7705 106.504 31.6539 106.164 31.6539L106.151 31.641Z" fill="#F59B1E"/>
<path d="M140.309 33.9986C140.309 32.0166 140.387 30.1383 140.152 28.1822C139.852 25.5396 136.939 23.3633 134.274 23.5317C130.826 23.752 127.991 26.835 128.749 30.4751C129.337 33.2602 131.792 35.1386 134.287 35.1127C135.593 35.1127 136.756 34.7888 137.814 34.0763C137.814 34.0763 137.814 34.0893 137.827 34.1022C137.866 34.6852 138.454 35.1515 139.094 35.1515C139.734 35.1515 140.296 34.6463 140.296 34.0375V34.0116C140.296 34.0116 140.296 34.0116 140.296 33.9986H140.309ZM134.535 32.7162C132.615 32.7162 131.061 31.2005 131.074 29.3351C131.087 27.5086 132.602 25.993 134.431 25.993C136.364 25.993 137.905 27.4957 137.892 29.3611C137.892 31.1876 136.351 32.7162 134.522 32.7162H134.535Z" fill="#E5005B"/>
<path d="M74.6059 18.6351C74.6059 18.3501 74.5145 18.0651 74.3185 17.819L72.098 15.1116C71.4841 14.3602 70.8702 13.5959 70.2301 12.8057C70.4522 12.6244 70.6481 12.4689 70.8441 12.3135C72.0066 11.316 73.1822 10.3186 74.3447 9.30815C74.8933 8.8418 74.9847 8.10342 74.5798 7.62412C74.1749 7.15778 73.4956 7.14482 72.9209 7.65003C71.3404 9.02316 69.773 10.3963 68.2055 11.7694C67.892 12.0415 67.4871 12.3912 67.1606 12.6632V12.4948V12.4819C67.1606 11.8342 67.1606 11.1865 67.1606 10.5258V9.01021C67.1606 8.32364 66.5858 7.75367 65.8936 7.75367C65.2013 7.75367 64.6265 8.32364 64.6265 9.01021V18.5314C64.6265 19.218 65.2013 19.788 65.8936 19.788C66.5858 19.788 67.1606 19.218 67.1606 18.5314V16.2645C67.1606 16.2645 67.1606 16.2386 67.1606 16.2256C67.1606 16.2256 67.1606 16.2127 67.1606 16.1997V15.8888C67.1606 15.8888 67.1867 15.8499 67.1998 15.824C67.5916 15.4743 68.1141 15.0857 68.5451 14.7488L72.3592 19.4123C72.8034 19.9434 73.6001 20.0341 74.1487 19.5937C74.3969 19.3994 74.5537 19.1144 74.5928 18.8294C74.6059 18.7646 74.6059 18.6998 74.6059 18.6351Z" fill="#E5005B"/>
<path d="M101.657 12.5985C101.827 14.1141 101.827 15.5391 101.814 17.0676C101.814 17.5081 101.814 17.9615 101.814 18.4278V18.4537C101.814 18.4537 101.814 18.4667 101.814 18.4796C101.814 19.1273 101.252 19.6455 100.547 19.6455C99.8417 19.6455 99.3062 19.1791 99.2278 18.6092C98.209 19.2698 97.0726 19.5937 95.7403 19.6066H95.7011C93.1018 19.6066 90.7114 17.5988 90.1497 14.9173C89.7971 13.2721 90.1759 11.6399 91.1947 10.3056C92.2789 8.89363 93.9247 8.02571 95.7272 7.90912C98.4833 7.74072 101.37 10.0206 101.657 12.6114V12.5985ZM99.2931 13.7773C99.2931 13.7773 99.2931 13.7125 99.2931 13.6866C99.2931 13.3757 99.2409 13.0778 99.1495 12.7798C99.1364 12.741 99.1233 12.6892 99.1103 12.6503C99.1103 12.6244 99.0842 12.5985 99.0711 12.5596C99.0711 12.5467 99.0711 12.5337 99.058 12.5208C98.5617 11.3031 97.3469 10.4481 95.9362 10.4481C94.0814 10.4481 92.5662 11.9378 92.5662 13.7903C92.5662 15.6427 94.0683 17.1324 95.9362 17.1324C97.8041 17.1324 99.3062 15.6427 99.3062 13.7903L99.2931 13.7773Z" fill="#F59B1E"/>
<path d="M139.968 12.8705V8.91953C139.968 8.28478 139.446 7.75367 138.793 7.75367H138.636C137.996 7.75367 137.46 8.28478 137.46 8.91953V9.25634C137.447 10.8367 137.46 12.4171 137.447 13.9975C137.421 15.7981 135.88 17.2879 134.077 17.2879C132.249 17.2879 130.76 15.85 130.72 13.9975C130.681 12.4042 130.694 10.8238 130.694 9.23043V8.90658C130.694 8.27183 130.172 7.74072 129.519 7.74072H129.362C128.722 7.74072 128.186 8.27183 128.186 8.90658V10.3315C128.186 11.614 128.186 12.8964 128.213 14.1918C128.239 15.28 128.539 16.3163 129.218 17.1972C131.334 19.9693 134.339 20.5393 137.421 18.7517C137.46 18.8294 137.487 18.8942 137.526 18.9589C137.669 19.4253 138.1 19.7621 138.61 19.788C138.61 19.788 138.623 19.788 138.636 19.788H138.793C139.433 19.788 139.968 19.2569 139.968 18.6221V16.5106C139.968 15.2929 139.968 14.0752 139.968 12.8705Z" fill="#995EA3"/>
<path d="M88.1386 12.9612C87.6423 9.56724 84.3899 7.30028 81.046 7.97389C78.4858 8.4791 76.3045 10.8756 76.2784 13.4405C76.2522 15.9924 76.2653 18.5444 76.2522 21.0963C76.2522 21.2518 76.2522 21.4202 76.2522 21.5756C76.2522 22.2363 76.7878 22.7674 77.4539 22.7674C78.1201 22.7674 78.6556 22.2363 78.6556 21.5756V18.5703C78.8516 18.6739 78.943 18.7128 79.0344 18.7776C80.4059 19.6973 81.9342 19.9175 83.5016 19.5419C86.3492 18.8682 88.6089 16.3033 88.1125 12.9612H88.1386ZM82.2216 17.2619C80.2884 17.2619 78.7079 15.7075 78.7079 13.7773C78.7079 11.8471 80.2753 10.2927 82.2216 10.2927C84.1678 10.2927 85.7352 11.8471 85.7352 13.7773C85.7352 15.7075 84.1678 17.2619 82.2216 17.2619Z" fill="#995EA3"/>
<ellipse cx="16.0536" cy="20" rx="11.9107" ry="11.8286" fill="url(#paint0_linear_2001_370)"/>
<ellipse cx="41.9464" cy="25.1429" rx="11.9107" ry="11.8286" fill="url(#paint1_linear_2001_370)"/>
<path d="M39.4452 7.5428L39.4091 7.4418C39.9816 7.34081 41.9949 7.03314 41.9949 7.03314L39.2191 6.93685L39.0435 6.46947L40.9293 4.38622C40.9293 4.38622 39.3129 5.60047 38.8439 5.93632L38.8054 5.83533C38.714 5.59342 38.5528 5.39379 38.3556 5.25052C39.082 4.54828 39.8228 3.83429 40.5613 3.1203C40.8427 2.85021 41.1193 2.57542 41.4031 2.31002C41.8217 1.9131 42.1488 1.88491 42.5601 2.29123C42.868 2.5989 43.1566 2.94885 43.3611 3.32463C44.0586 4.61169 44.5205 5.97625 44.5974 7.4418C44.6119 7.68606 44.5854 7.96555 44.4675 8.17223C44.3761 8.33664 44.1188 8.51748 43.9384 8.51513C42.4447 8.4846 40.9509 8.41649 39.4596 8.36012C39.5438 8.10177 39.5462 7.81524 39.4428 7.5428" fill="#E5005B"/>
<path d="M38.18 8.9238C37.5378 9.15162 36.8234 8.82751 36.5877 8.20042L36.1956 7.15762C35.9599 6.53288 36.2942 5.83299 36.934 5.60282C37.5762 5.375 38.293 5.69912 38.5264 6.3262L38.9184 7.369C39.1517 7.99374 38.8198 8.69364 38.18 8.9238Z" fill="#E5005B"/>
<path d="M36.3231 8.67249L36.2846 8.5715C35.7819 8.85569 34.038 9.89144 34.038 9.89144L36.097 8.06654L35.9214 7.59916L33.1047 7.19755C33.1047 7.19755 35.142 7.1083 35.7217 7.06602L35.6832 6.96503C35.5942 6.72312 35.5822 6.46947 35.6423 6.23695C34.6225 6.15945 33.5858 6.07959 32.5491 5.99974C32.1546 5.96921 31.7625 5.93633 31.3705 5.91049C30.7884 5.87291 30.519 6.05611 30.4733 6.62917C30.4396 7.05663 30.4516 7.50522 30.543 7.92328C30.8629 9.34421 31.4113 10.6782 32.3206 11.8479C32.4721 12.0428 32.679 12.2401 32.9027 12.3223C33.0831 12.3904 33.3982 12.3669 33.5329 12.2518C34.6538 11.2865 35.7482 10.2931 36.8498 9.30898C36.6141 9.16571 36.4241 8.94729 36.3207 8.67484" fill="#E5005B"/>
<path d="M40.2005 25.3526C40.2005 26.1323 39.5534 26.7617 38.7573 26.7617C37.9611 26.7617 37.3165 26.1323 37.3165 25.3526C37.3165 24.5728 37.9611 23.9457 38.7573 23.9457C39.5534 23.9457 40.2005 24.5752 40.2005 25.3526Z" fill="#67432C"/>
<path d="M19.7454 17.2075C19.7454 17.7735 19.274 18.2338 18.6943 18.2338C18.1146 18.2338 17.6432 17.7735 17.6432 17.2075C17.6432 16.6414 18.1146 16.1788 18.6943 16.1788C19.274 16.1788 19.7454 16.6391 19.7454 17.2075Z" fill="#67432C"/>
<path d="M11.3292 17.8674C11.3292 18.4358 10.8577 18.8961 10.278 18.8961C9.69833 18.8961 9.22688 18.4358 9.22688 17.8674C9.22688 17.2991 9.69833 16.8411 10.278 16.8411C10.8577 16.8411 11.3292 17.3014 11.3292 17.8674Z" fill="#67432C"/>
<path d="M49.6703 25.3526C49.6703 26.1323 49.0257 26.7617 48.2295 26.7617C47.4333 26.7617 46.7887 26.1323 46.7887 25.3526C46.7887 24.5728 47.4333 23.9457 48.2295 23.9457C49.0257 23.9457 49.6703 24.5752 49.6703 25.3526Z" fill="#67432C"/>
<path d="M51.3661 12.6041C50.2067 12.1767 49.1099 11.7163 47.9769 11.364C45.3239 10.5397 42.6251 10.3048 39.9311 11.1527C36.3134 12.2871 34.1126 14.8259 32.869 18.2315C32.1787 20.1127 31.9069 22.0762 32.0416 24.0655C32.234 26.9144 33.0999 29.5308 35.2094 31.6117C36.9388 33.3192 39.0339 34.2657 41.5066 34.4535C44.4435 34.679 47.0557 33.9486 49.2686 32.0298C51.2578 30.3058 52.3787 28.1052 52.8189 25.5592C53.3144 22.715 52.9368 19.9906 51.6066 17.4047C50.7936 15.8218 49.6895 14.5065 48.0058 13.7291C47.568 13.5271 47.5344 13.2805 47.9024 12.9752C48.3426 12.6065 48.8717 12.6511 49.3744 12.7803C51.5008 13.3322 53.057 14.6287 54.1539 16.4442C55.7366 19.0582 56.2561 21.9024 55.9482 24.9087C55.6788 27.5039 54.7816 29.862 53.1075 31.9029C51.0654 34.3925 48.4532 35.9144 45.1627 36.2597C41.3983 36.6542 38.0068 35.797 35.053 33.446C33.5401 32.2435 32.501 30.691 31.7337 28.9624C31.5028 28.4481 31.1492 28.1686 30.5526 28.0371C29.018 27.6942 28.9651 26.2779 29.641 25.5616C30.0596 25.1177 30.4805 24.3591 30.4997 23.7062C30.5551 21.6253 30.7547 19.5561 31.4378 17.5668C32.5828 14.2364 34.9424 12.0146 38.1992 10.6759C41.6581 9.25261 45.1579 9.15397 48.6456 10.6007C49.7016 11.0376 50.6108 11.6882 51.3661 12.6018M30.6849 25.3737C29.985 25.7307 29.6458 26.3437 29.8046 26.8416C29.9224 27.2174 30.4228 27.4687 31.0842 27.417C30.9519 26.7383 30.8196 26.0618 30.6849 25.3713" fill="#67432C"/>
<path d="M27.481 21.5853C27.6638 21.5548 27.7937 21.5219 27.9284 21.5102C29.1119 21.3881 29.6049 20.6929 29.2297 19.596C29.0662 19.1122 28.7992 18.6613 28.5779 18.1939C29.0084 18.0976 29.2995 18.3325 29.528 18.6425C29.9826 19.2578 30.1967 19.9577 30.2039 20.714C30.2135 21.3293 29.9152 21.7967 29.3668 22.0527C28.8617 22.2876 28.3229 22.4684 27.7793 22.6047C27.4137 22.6962 27.2068 22.8442 27.0553 23.1989C25.7588 26.1981 23.8129 28.69 20.722 30.0686C16.1038 32.1284 11.7381 31.452 7.67786 28.5843C6.38619 27.7552 5.14263 26.0853 4.21657 24.5611C3.83171 23.9246 3.30254 23.5089 2.60258 23.2317C1.97239 22.9781 1.3494 22.6775 0.784147 22.3064C-0.271798 21.6182 -0.428145 19.9601 1.34459 18.6284C1.87377 18.2315 1.98441 17.7758 2.02771 17.2192C2.24178 14.3938 3.11011 11.7891 5.00552 9.6143C6.79028 7.56863 9.09941 6.27688 11.7814 5.66154C13.215 5.33038 14.6702 5.25287 16.1254 5.55115C16.3227 5.59108 16.5103 5.66858 16.6955 5.83769C16.3227 5.83769 15.9498 5.85413 15.577 5.83534C13.3689 5.7226 11.3316 6.23695 9.45059 7.369C6.33567 9.24322 4.34646 11.8901 3.62726 15.4155C3.26646 17.1793 3.53826 18.875 4.1877 20.5355C5.03679 22.7009 6.07349 24.7443 7.91117 26.2967C9.96533 28.0324 12.3009 29.108 15.0598 29.0775C17.304 29.0517 19.2764 28.225 20.9962 26.8486C23.1442 25.1294 24.5874 22.9452 25.2946 20.3171C25.9993 17.6936 25.5207 15.2041 24.3204 12.8202C23.4232 11.0376 22.2181 9.46869 20.5777 8.26853C20.0798 7.90449 19.4592 7.69781 18.918 7.38074C18.7088 7.25627 18.3455 7.08716 18.3961 6.84525C18.4466 6.61509 18.8362 6.57986 19.0623 6.57281C20.6667 6.51409 21.992 7.21399 23.1683 8.17459C25.7107 10.2531 27.1948 12.9282 27.6614 16.1271C27.9116 17.8486 27.8442 19.5749 27.5051 21.2871C27.4907 21.3669 27.4931 21.4515 27.4834 21.5877M2.87439 22.3745C2.69158 21.8014 2.54726 21.3434 2.39813 20.8878C2.24659 20.4228 2.08784 19.9554 1.92909 19.4739C1.27724 19.7581 0.87555 20.1386 0.870739 20.8197C0.865928 21.4961 1.34459 21.7756 1.87377 22.0104C2.16241 22.1396 2.4727 22.2289 2.87679 22.3745" fill="#67432C"/>
<path d="M11.726 10.0159C11.3099 10.1005 10.8625 10.5725 10.4729 10.9014C9.88837 11.3946 9.34957 11.9442 8.77469 12.4491C8.56062 12.637 8.31527 12.8108 8.0555 12.9235C7.87029 13.001 7.55278 13.0574 7.43973 12.9611C7.2906 12.8343 7.12944 12.5431 7.22565 12.2166C7.34111 11.8056 7.50467 11.4885 7.76926 11.1574C9.32552 9.19859 11.2113 7.7072 13.785 7.20459C14.9709 6.97442 16.1038 6.93685 17.0924 7.76357C17.9968 8.51983 18.0377 9.51096 17.8043 10.5326C17.5518 11.6388 17.1188 12.489 16.2072 13.1748C15.6973 13.56 15.1705 13.506 15.0719 12.9001C14.9853 12.3716 15.3485 10.6782 14.8746 10.5232C14.7977 10.4997 14.6149 10.5843 14.5283 10.6688C14.384 10.8074 14.2733 10.9836 14.1603 11.1503C13.773 11.7234 13.4218 12.3199 13.0009 12.8672C12.7411 13.203 12.426 13.5859 11.8896 13.3486C11.4182 13.1396 11.2257 12.63 11.3821 12.0052C11.5144 11.4697 11.6755 10.9436 11.8175 10.4105C11.8415 10.3212 11.957 9.96894 11.7309 10.0159" fill="#67432C"/>
<path d="M52.2248 19.6454C51.8327 19.7581 51.4502 19.9108 51.051 19.9718C47.6209 20.4768 43.0195 18.2221 41.3791 15.2299C41.1722 14.8518 41.0231 14.4267 40.9437 14.0063C40.7248 12.8648 41.6701 12.0686 42.8536 12.3716C43.96 12.6558 44.7321 13.3768 45.384 14.2505C46.3702 15.5681 47.3275 16.928 48.7803 17.7993C49.7232 18.3653 50.7599 18.7811 51.7557 19.2625C51.9024 19.333 52.0516 19.4034 52.2007 19.4739C52.2079 19.5303 52.2151 19.589 52.2224 19.6454" fill="#67432C"/>
<path d="M7.04285 20.869C7.382 21.8883 8.10601 22.4567 8.9599 22.8818C10.2203 23.5136 11.5865 23.7954 12.9696 23.9011C15.0671 24.0608 16.7316 23.9974 19.1561 23.2129C19.5314 23.0908 19.8802 22.8935 20.2289 22.7103C20.8928 22.3627 21.3498 21.8531 21.3859 21.0475C21.6553 21.2002 21.9055 21.3411 22.2181 21.5196C21.6673 21.9447 21.1694 22.4097 20.5994 22.755C19.0118 23.7156 17.3978 24.6339 15.7863 25.5545C14.8241 26.1041 13.8211 26.0806 12.8806 25.5475C11.3436 24.6738 9.82823 23.7531 8.33211 22.8066C7.66583 22.3839 7.03804 21.94 6.11679 22.0809C6.45354 21.6394 6.73737 21.2659 7.04044 20.869" fill="#67432C"/>
<path d="M35.106 17.6396C36.0368 16.4653 36.934 15.2675 37.9106 14.1331C38.3267 13.6493 38.9112 13.304 39.6304 13.4074C40.239 13.4943 40.4194 13.6657 40.3111 14.2364C40.2173 14.7343 40.073 15.2675 39.7892 15.6808C38.7068 17.2544 37.0711 17.7406 35.2503 17.7946L35.106 17.642V17.6396Z" fill="#67432C"/>
<path d="M46.6612 29.8596C46.2764 31.0973 44.5734 32.2505 43.2889 32.3304C41.9251 32.4126 40.696 31.5318 40.0802 29.9723C42.2715 30.2636 44.4363 30.3082 46.6612 29.8596Z" fill="#67432C"/>
<path d="M55.5538 28.0065C55.5538 27.6942 55.9699 27.5838 56.2225 27.4992C57.4275 27.0976 57.6055 26.6748 56.9657 25.5827C56.9104 25.4888 56.8575 25.3925 56.7949 25.2844C57.4492 25.4207 57.8942 25.8834 57.9856 26.5034C58.0625 27.0365 57.8004 27.5791 57.2375 27.8116C56.7468 28.0136 56.1214 28.2719 55.7823 28.2156C55.6933 28.1991 55.5538 28.1427 55.5538 28.0065Z" fill="#67432C"/>
<path d="M50.1009 23.3562C49.2446 22.8583 48.3907 22.7761 47.1615 22.8372C48.2175 22.0034 49.8122 22.3181 50.1009 23.3562Z" fill="#67432C"/>
<path d="M39.4524 22.4426C38.3556 22.3956 37.6869 22.4802 36.4818 22.9922C37.1048 21.8742 38.2666 21.6394 39.4524 22.4426Z" fill="#67432C"/>
<path d="M44.2366 28.5819C43.5126 28.3682 43.0099 28.4363 42.2282 28.5819C42.4254 28.0605 42.7405 27.6777 43.3346 27.6871C43.9071 27.6942 44.1356 28.0958 44.2342 28.5819" fill="#67432C"/>
<path d="M13.0923 21.1884C13.8788 20.3124 14.7544 20.303 15.7646 21.1884C14.8073 21.0052 14.0304 21.0827 13.0923 21.1884Z" fill="#67432C"/>
<path d="M16.9432 35.541V35.4329C17.5157 35.5316 19.5169 35.9191 19.5169 35.9191L16.9432 34.8951V34.3972L19.4472 33.0725C19.4472 33.0725 17.5013 33.6714 16.9432 33.8312V33.7231C16.9432 33.4648 16.8638 33.2252 16.7267 33.0232C17.6576 32.6099 18.6029 32.1871 19.5482 31.7644C19.9066 31.6046 20.265 31.4402 20.6258 31.2852C21.1574 31.0527 21.4773 31.1373 21.7202 31.6563C21.903 32.0485 22.0498 32.4713 22.1075 32.8964C22.3095 34.3385 22.2638 35.7758 21.8188 37.178C21.7467 37.4128 21.6192 37.6665 21.4388 37.8215C21.2945 37.946 20.989 38.0282 20.823 37.9648C19.4303 37.4363 18.0521 36.8703 16.6714 36.3137C16.8422 36.0999 16.9432 35.8322 16.9432 35.5386" fill="#52AE32"/>
<path d="M15.2691 36.4147C14.586 36.4147 14.028 35.8674 14.028 35.2028V34.0919C14.028 33.4248 14.586 32.88 15.2691 32.88C15.9522 32.88 16.5103 33.4248 16.5103 34.0919V35.2028C16.5103 35.8674 15.9522 36.4147 15.2691 36.4147Z" fill="#52AE32"/>
<path d="M13.6142 35.5551V35.4494C13.0418 35.548 11.0405 35.9332 11.0405 35.9332L13.6142 34.9092V34.4113L11.1103 33.0866C11.1103 33.0866 13.0562 33.6855 13.6142 33.8453V33.7372C13.6142 33.4789 13.6936 33.2393 13.8307 33.0373C12.8998 32.624 11.9545 32.2012 11.0068 31.7785C10.6484 31.6187 10.29 31.4543 9.93165 31.2993C9.40007 31.0668 9.08016 31.1514 8.83722 31.6704C8.65442 32.0626 8.50769 32.4854 8.44756 32.9105C8.24551 34.3526 8.29362 35.7899 8.7362 37.1921C8.81076 37.4269 8.93584 37.6806 9.11624 37.8356C9.26056 37.9577 9.56604 38.0423 9.73201 37.9789C11.1247 37.4504 12.503 36.8844 13.8836 36.3278C13.7129 36.114 13.6118 35.8463 13.6118 35.5527" fill="#52AE32"/>
</g>
<defs>
<linearGradient id="paint0_linear_2001_370" x1="16.0536" y1="8.17143" x2="16.0536" y2="31.8286" gradientUnits="userSpaceOnUse">
<stop stop-color="#F2CEAA"/>
<stop offset="1" stop-color="#D98E3B"/>
</linearGradient>
<linearGradient id="paint1_linear_2001_370" x1="41.9464" y1="13.3143" x2="41.9464" y2="36.9714" gradientUnits="userSpaceOnUse">
<stop stop-color="#F5DE9A"/>
<stop offset="1" stop-color="#F2CE53"/>
</linearGradient>
<clipPath id="clip0_2001_370">
<rect width="143" height="40" fill="white"/>
</clipPath>
</defs>
</svg>
