<svg width="1920" height="1277" viewBox="0 0 1920 1277" fill="none" xmlns="http://www.w3.org/2000/svg">
<g filter="url(#filter0_n_280_988)">
<path d="M1762.13 14.892C1789 -2.80542 1821.59 -3.9889 1858.64 7.42951C1891.71 17.5987 1919.26 33.7839 1945.56 54.4729C1949.26 48.2267 1952.22 43.0326 1955.45 37.8932C1976.17 4.85434 2027.37 -3.78069 2076.18 17.6973C2082.23 20.3711 2088.38 23.6366 2092.89 27.472C2126.34 55.9961 2155.79 85.6489 2167.9 121.011C2176.1 144.987 2183.83 168.942 2189.42 192.885L2195.98 228.762C2197.03 237.124 2197.61 262.13 2195.98 264.749L2160.12 1072.37C2162.75 1117.45 2166.51 1162.75 2154.06 1205.27C2148.66 1223.69 2140.65 1241.34 2119.12 1251.88C2066.92 1277.46 2026.01 1268.94 1963.75 1227.82C1960.9 1225.93 1958.52 1223.6 1953.03 1219.12L1952.96 1219.14C1949.12 1227.33 1945.98 1233.7 1943.11 1240.21C1935.12 1258.25 1918.7 1266.87 1890.49 1262.56C1869.12 1259.27 1847.01 1253.13 1826.6 1245.49C1805.42 1237.61 1785.9 1226.39 1763.53 1215.65C1761.6 1218.82 1758.99 1222.19 1757.34 1225.86C1749.82 1242.23 1737.61 1255.79 1718.85 1266.04C1690.62 1281.47 1658.03 1279.97 1622.05 1265.55C1589.94 1252.69 1563.81 1234.29 1539.3 1211.52C1535.09 1217.44 1531.7 1222.38 1528.08 1227.24C1504.7 1258.47 1452.97 1262.87 1406.1 1237.45C1400.29 1234.29 1394.44 1230.52 1390.25 1226.34C1375.54 1211.55 1361.76 1196.57 1350.35 1181.05C1345.75 1188.46 1339.34 1195.16 1330.11 1200.66C1280.18 1230.45 1238.72 1225.31 1173.28 1189.44C1170.29 1187.8 1167.72 1185.66 1161.88 1181.65L1161.83 1181.67C1158.66 1190.14 1156.08 1196.76 1153.75 1203.49C1147.26 1222.12 1131.61 1232.07 1103.15 1230.08C1081.59 1228.55 1059.05 1224.26 1038.07 1218.33C1016.33 1212.2 995.947 1202.63 972.773 1193.75C971.108 1197.08 968.785 1200.64 967.448 1204.43C961.291 1221.37 950.235 1235.89 932.387 1247.64C905.521 1265.34 872.925 1266.52 835.881 1255.1C802.814 1244.93 775.258 1228.75 748.962 1208.06C745.259 1214.32 742.301 1219.5 739.068 1224.64C718.349 1257.68 667.149 1266.31 618.337 1244.84C612.289 1242.17 606.154 1238.9 601.629 1235.06C584.208 1220.2 567.871 1205.04 554.504 1188.93C549.749 1198.03 542.726 1206.24 531.703 1212.73C481.632 1242.27 440.194 1236.94 374.925 1200.74C371.945 1199.09 369.392 1196.93 363.574 1192.89L363.519 1192.92C360.32 1201.37 357.701 1207.97 355.324 1214.7C348.739 1233.29 333.038 1243.16 304.583 1241.03C283.032 1239.4 260.516 1234.98 239.567 1228.95C217.84 1222.71 197.515 1213.05 174.386 1204.05C172.699 1207.37 170.354 1210.91 169.006 1214.7C162.761 1231.61 151.629 1246.07 133.726 1257.73C106.773 1275.29 74.1657 1276.32 37.1761 1264.71C4.16382 1254.37 -23.3044 1238.05 -49.5017 1217.23C-53.2379 1223.47 -56.2291 1228.64 -59.4722 1233.77C-80.3665 1266.71 -131.6 1275.08 -180.302 1253.36C-186.328 1250.67 -192.464 1247.36 -196.956 1243.5C-230.275 1214.81 -259.562 1185.02 -271.505 1149.59C-286.439 1105.2 -266.202 192.896 -266.202 192.896H-265.731C-267.035 161.425 -266.333 130.281 -257.678 100.475C-252.32 82.0436 -244.365 64.3681 -222.846 53.7825C-170.704 28.0856 -129.781 36.5015 -67.4158 77.485C-64.567 79.3589 -62.1785 81.693 -56.6783 86.1639L-56.6125 86.142C-52.7887 77.9562 -49.677 71.5676 -46.8173 65.0366C-38.8628 46.9885 -22.4717 38.3206 5.75253 42.5723C27.118 45.816 49.2503 51.8977 69.6844 59.4917C90.8746 67.3268 110.432 78.4932 132.816 89.1993C134.756 86.0215 137.342 82.6573 138.974 78.9863C146.468 62.5929 158.652 49.0048 177.377 38.7151C205.569 23.2202 238.164 24.6448 274.179 38.989C306.326 51.7662 332.49 70.0992 357.066 92.8265C361.262 86.8981 364.626 81.956 368.241 77.0905C391.546 45.805 443.261 41.2902 490.2 66.6036C496.007 69.7486 501.879 73.4963 506.076 77.6823C520.626 92.2457 534.278 106.984 545.629 122.26C549.354 118.195 553.88 114.469 559.424 111.159C609.342 81.3752 650.813 86.5036 716.257 122.37C719.248 124.013 721.812 126.15 727.652 130.161L727.717 130.139C730.884 121.668 733.47 115.061 735.792 108.321C742.29 89.6924 757.936 79.7424 786.401 81.7368C807.953 83.26 830.501 87.5556 851.472 93.4949C873.221 99.6096 893.601 109.187 916.774 118.063C918.439 114.743 920.762 111.181 922.099 107.39C928.257 90.4485 939.312 75.929 957.16 64.1818C984.026 46.4844 1016.62 45.3009 1053.67 56.7193C1086.73 66.8885 1114.29 83.0737 1140.58 103.763C1144.29 97.5166 1147.25 92.3224 1150.48 87.183C1171.2 54.1442 1222.4 45.5091 1271.21 66.9871C1277.26 69.6609 1283.4 72.9265 1287.92 76.7618C1304.01 90.4924 1319.19 104.486 1331.95 119.258C1332.38 116.584 1332.86 113.921 1333.41 111.258C1337.28 92.4539 1343.8 74.1976 1364.41 61.9354C1414.34 32.1511 1455.8 37.2795 1521.24 73.1456C1524.23 74.7893 1526.79 76.9262 1532.63 80.9369L1532.7 80.9149C1535.87 72.4443 1538.45 65.8365 1540.78 59.0972C1547.27 40.4684 1562.92 30.5184 1591.38 32.5127C1612.94 34.0359 1635.48 38.3315 1656.46 44.2709C1678.2 50.3855 1698.58 59.9629 1721.76 68.8391C1723.42 65.5187 1725.75 61.9573 1727.08 58.1658C1733.24 41.2245 1744.29 26.7049 1762.14 14.9578L1762.13 14.892Z" fill="#6CB1DA"/>
</g>
<defs>
<filter id="filter0_n_280_988" x="-277" y="0" width="2474" height="1277" filterUnits="userSpaceOnUse" color-interpolation-filters="sRGB">
<feFlood flood-opacity="0" result="BackgroundImageFix"/>
<feBlend mode="normal" in="SourceGraphic" in2="BackgroundImageFix" result="shape"/>
<feTurbulence type="fractalNoise" baseFrequency="0.55555558204650879 0.55555558204650879" stitchTiles="stitch" numOctaves="3" result="noise" seed="8412" />
<feColorMatrix in="noise" type="luminanceToAlpha" result="alphaNoise" />
<feComponentTransfer in="alphaNoise" result="coloredNoise1">
<feFuncA type="discrete" tableValues="1 1 1 1 1 1 1 1 1 1 1 1 1 1 1 1 1 1 1 1 1 1 1 1 1 1 1 1 1 1 1 1 1 1 1 1 1 1 1 1 1 1 1 1 1 1 1 1 1 1 1 0 0 0 0 0 0 0 0 0 0 0 0 0 0 0 0 0 0 0 0 0 0 0 0 0 0 0 0 0 0 0 0 0 0 0 0 0 0 0 0 0 0 0 0 0 0 0 0 0 "/>
</feComponentTransfer>
<feComposite operator="in" in2="shape" in="coloredNoise1" result="noise1Clipped" />
<feFlood flood-color="rgba(255, 255, 255, 0.16)" result="color1Flood" />
<feComposite operator="in" in2="noise1Clipped" in="color1Flood" result="color1" />
<feMerge result="effect1_noise_280_988">
<feMergeNode in="shape" />
<feMergeNode in="color1" />
</feMerge>
</filter>
</defs>
</svg>
