<svg width="552" height="709" viewBox="0 0 552 709" fill="none" xmlns="http://www.w3.org/2000/svg">
<path d="M636.975 283.823C610.727 307.738 576.273 315.594 538.166 303.157C510.396 294.083 483.34 282.889 455.867 272.754C451.568 271.149 447.091 269.957 442.614 268.941C408.089 261.173 389.221 271.817 382.16 306.52C378.15 326.317 378.117 347.099 377.673 367.408C376.987 399.478 380.426 431.914 376.764 463.532C371.438 509.443 347.725 533.248 308.856 538.968C288.596 541.943 268.646 539.673 249.715 532.04C228.811 523.605 208.769 513.021 187.686 505.117C166.31 497.093 144.28 490.542 122.219 484.551C92.7063 476.562 70.7941 489.761 54.1287 512.792C32.0168 543.353 21.0351 578.074 17.7389 615.501C16.3353 631.297 14.5485 647.121 11.8781 662.707C8.8778 680.149 -0.831629 693.679 -16.5093 701.974C-43.8787 716.425 -70.9952 705.584 -83.3421 674.772C-109.411 609.694 -107.448 544.967 -78.7211 481.146C-60.7965 441.287 -37.3463 406.809 2.01763 383.552C49.65 355.426 98.772 351.447 150.493 365.575C172.612 371.625 194.136 379.914 215.808 387.644C235.831 394.779 254.01 388.112 260.055 367.761C266.07 347.558 270.821 326.378 272.004 305.452C274.214 266.518 274.803 227.491 289.859 190.896C295.115 178.089 302.523 165.141 312.103 155.383C364.883 101.804 403.609 94.5213 473.679 123.561C490.666 130.599 506.941 139.403 524.048 146.028C530.349 148.464 539.749 149.524 544.681 146.385C548.048 144.272 548.081 133.13 546.183 127.14C538.942 104.067 529.843 81.5476 522.395 58.503C517.197 42.3335 511.144 25.8372 509.839 9.14887C507.112 -25.1125 543.231 -47.4955 573.929 -31.9272C604.539 -16.3887 625.333 9.02474 642.344 37.7874C675.163 93.216 691.965 151.81 675.912 216.436C669.944 240.413 655.986 264.926 636.946 283.734L636.975 283.823Z" fill="#C8FF70"/>
</svg>
