<svg width="1920" height="681" viewBox="0 0 1920 681" fill="none" xmlns="http://www.w3.org/2000/svg">
<g filter="url(#filter0_n_280_1054)">
<path d="M1748.89 676.685C1713.77 676.226 1680.06 672.534 1646.38 667.881C1601.78 661.75 1557.11 655.424 1511.75 651.34C1462 646.904 1412.02 644.337 1361.66 646.135C1323.94 647.436 1289.09 653.906 1253.47 659.203C1205.19 666.389 1157.24 674.256 1107.28 677.795C1039.11 682.601 970.936 680.342 902.787 673.804C849.077 668.643 796.221 661.148 743.558 653.033C724.831 650.154 705.482 647.451 687.942 643.016C667.333 637.782 645.687 635.165 624.509 631.455C562.12 620.545 498.661 613.502 433.33 614.15C391.218 614.571 349.75 617.412 308.598 621.751C248.682 628.113 188.684 634.233 126.587 632.656C82.5725 631.538 38.5194 628.449 -1.01393 617.687C-78.6766 596.487 -130.108 564.176 -136.795 514.686C-142.159 475.662 -129.656 438.629 -108.431 402.202C-94.6818 378.661 -77.4192 355.785 -65.7787 331.853C-52.835 305.263 -49.7679 278.326 -62.045 250.854C-70.2293 232.524 -82.313 214.816 -93.0675 196.902C-108.396 171.42 -114.888 145.538 -110.779 119.252C-104.659 79.8456 -77.5035 46.2613 -16.4761 23.9201C22.7237 9.58121 67.4715 2.68983 115.537 0.689611C197.444 -2.71061 276.457 6.98696 355.518 18.32C409.604 26.0386 463.309 34.8531 517.859 41.67C580.063 49.4506 641.414 49.1336 703.237 44.1179C775.498 38.2135 844.48 25.8806 914.721 16.0793C945.458 11.7644 976.123 6.82267 1008.2 5.52199C1064.57 3.20391 1120.59 4.28981 1176.45 11.5728C1233.19 18.9262 1288.17 29.5998 1343.89 38.8982C1392.59 47.0085 1442.01 50.5708 1492.81 48.6881C1572.85 45.6732 1650.09 35.0881 1728.55 28.0915C1764.91 24.8326 1801.17 22.148 1838.39 23.1412C1882.14 24.3482 1920.67 32.8255 1954.88 48.1632C1998.08 67.5265 2026.84 92.2438 2047.67 119.98C2065.09 143.208 2070.74 167.338 2070.03 191.884C2069.34 215.757 2062.48 239.233 2049.55 261.594C2035.43 286.039 2015.68 309.428 1998.92 333.374C1975.38 367.05 1959.14 401.681 1965 438.651C1968.89 462.785 1976.4 486.722 1983.65 510.652C1990.65 533.856 1995.88 557.158 1992.02 580.566C1987.85 605.793 1967.12 626.465 1935.25 644.115C1899.44 663.924 1854.46 672.877 1804.24 676.168C1785.68 677.379 1767.06 677.387 1748.89 676.733L1748.89 676.685Z" fill="#FF86B9"/>
</g>
<defs>
<filter id="filter0_n_280_1054" x="-138.036" y="0" width="2208.13" height="680.37" filterUnits="userSpaceOnUse" color-interpolation-filters="sRGB">
<feFlood flood-opacity="0" result="BackgroundImageFix"/>
<feBlend mode="normal" in="SourceGraphic" in2="BackgroundImageFix" result="shape"/>
<feTurbulence type="fractalNoise" baseFrequency="0.55555558204650879 0.55555558204650879" stitchTiles="stitch" numOctaves="3" result="noise" seed="5476" />
<feColorMatrix in="noise" type="luminanceToAlpha" result="alphaNoise" />
<feComponentTransfer in="alphaNoise" result="coloredNoise1">
<feFuncA type="discrete" tableValues="1 1 1 1 1 1 1 1 1 1 1 1 1 1 1 1 1 1 1 1 1 1 1 1 1 1 1 1 1 1 1 1 1 1 1 1 1 1 1 1 1 1 1 1 1 1 1 1 1 1 1 0 0 0 0 0 0 0 0 0 0 0 0 0 0 0 0 0 0 0 0 0 0 0 0 0 0 0 0 0 0 0 0 0 0 0 0 0 0 0 0 0 0 0 0 0 0 0 0 0 "/>
</feComponentTransfer>
<feComposite operator="in" in2="shape" in="coloredNoise1" result="noise1Clipped" />
<feFlood flood-color="rgba(255, 255, 255, 0.16)" result="color1Flood" />
<feComposite operator="in" in2="noise1Clipped" in="color1Flood" result="color1" />
<feMerge result="effect1_noise_280_1054">
<feMergeNode in="shape" />
<feMergeNode in="color1" />
</feMerge>
</filter>
</defs>
</svg>
