<svg width="375" height="505" viewBox="0 0 375 505" fill="none" xmlns="http://www.w3.org/2000/svg">
<g filter="url(#filter0_n_300_1089)">
<path d="M438.841 502.063C412.786 501.722 387.775 498.983 362.781 495.531C329.695 490.982 296.547 486.288 262.899 483.258C225.983 479.967 188.9 478.062 151.539 479.396C123.552 480.362 97.694 485.162 71.2688 489.092C35.4433 494.424 -0.133005 500.261 -37.1994 502.886C-87.7799 506.452 -138.358 504.776 -188.921 499.925C-228.771 496.096 -267.987 490.535 -307.06 484.514C-320.955 482.378 -335.311 480.373 -348.324 477.082C-363.615 473.199 -379.675 471.257 -395.387 468.505C-441.677 460.41 -488.76 455.184 -537.232 455.666C-568.477 455.978 -599.244 458.085 -629.776 461.305C-674.231 466.025 -718.746 470.565 -764.818 469.396C-797.475 468.566 -830.16 466.274 -859.491 458.289C-917.113 442.56 -955.272 418.587 -960.233 381.869C-964.213 352.915 -954.937 325.438 -939.189 298.412C-928.988 280.945 -916.18 263.973 -907.543 246.217C-897.94 226.488 -895.664 206.502 -904.773 186.12C-910.845 172.52 -919.811 159.382 -927.79 146.09C-939.163 127.184 -943.98 107.981 -940.93 88.478C-936.39 59.2409 -916.242 34.3232 -870.963 17.7474C-841.879 7.10867 -808.679 1.9956 -773.017 0.51157C-712.247 -2.01119 -653.623 5.18384 -594.964 13.5923C-554.836 19.3191 -514.989 25.8589 -474.516 30.9168C-428.364 36.6895 -382.845 36.4544 -336.976 32.7329C-283.362 28.3522 -232.182 19.2019 -180.066 11.9299C-157.261 8.72844 -134.51 5.06197 -110.714 4.09693C-68.8901 2.37705 -27.3269 3.18273 14.1196 8.5863C56.2197 14.0421 97.0131 21.9613 138.356 28.8602C174.483 34.8776 211.154 37.5207 248.844 36.1238C308.231 33.8869 365.534 26.0334 423.753 20.8423C450.729 18.4244 477.629 16.4325 505.245 17.1694C537.704 18.0649 566.292 24.3546 591.674 35.7343C623.725 50.1009 645.066 68.4397 660.522 89.0186C673.444 106.252 677.639 124.155 677.111 142.367C676.596 160.079 671.504 177.497 661.915 194.088C651.435 212.225 636.784 229.579 624.348 247.345C606.884 272.331 594.837 298.025 599.183 325.455C602.068 343.361 607.642 361.121 613.019 378.876C618.214 396.091 622.097 413.38 619.233 430.748C616.138 449.465 600.753 464.803 577.107 477.898C550.539 492.595 517.169 499.237 479.911 501.679C466.136 502.578 452.318 502.584 438.84 502.099L438.841 502.063Z" fill="#FF86B9"/>
</g>
<defs>
<filter id="filter0_n_300_1089" x="-961.154" y="0" width="1638.31" height="504.796" filterUnits="userSpaceOnUse" color-interpolation-filters="sRGB">
<feFlood flood-opacity="0" result="BackgroundImageFix"/>
<feBlend mode="normal" in="SourceGraphic" in2="BackgroundImageFix" result="shape"/>
<feTurbulence type="fractalNoise" baseFrequency="0.55555558204650879 0.55555558204650879" stitchTiles="stitch" numOctaves="3" result="noise" seed="7514" />
<feColorMatrix in="noise" type="luminanceToAlpha" result="alphaNoise" />
<feComponentTransfer in="alphaNoise" result="coloredNoise1">
<feFuncA type="discrete" tableValues="1 1 1 1 1 1 1 1 1 1 1 1 1 1 1 1 1 1 1 1 1 1 1 1 1 1 1 1 1 1 1 1 1 1 1 1 1 1 1 1 1 1 1 1 1 1 1 1 1 1 1 0 0 0 0 0 0 0 0 0 0 0 0 0 0 0 0 0 0 0 0 0 0 0 0 0 0 0 0 0 0 0 0 0 0 0 0 0 0 0 0 0 0 0 0 0 0 0 0 0 "/>
</feComponentTransfer>
<feComposite operator="in" in2="shape" in="coloredNoise1" result="noise1Clipped" />
<feFlood flood-color="rgba(255, 255, 255, 0.16)" result="color1Flood" />
<feComposite operator="in" in2="noise1Clipped" in="color1Flood" result="color1" />
<feMerge result="effect1_noise_300_1089">
<feMergeNode in="shape" />
<feMergeNode in="color1" />
</feMerge>
</filter>
</defs>
</svg>
